<svg xmlns="http://www.w3.org/2000/svg" width="328.642" height="186.771" viewBox="0 0 328.642 186.771">
  <g id="Group_48740" data-name="Group 48740" transform="translate(6603.5 15533.5)">
    <path id="Ninja_Software_x_1000_Black" data-name="Ninja Software x 1000 Black" d="M69.948,40.772c2.614,0,4.122-1.257,4.122-3.921V10.96h6.536V37.2c0,6.435-3.67,9.552-10.658,9.552ZM300.091,23.78c0-7.642,5.932-13.423,13.775-13.423s13.775,5.782,13.775,13.473a10.652,10.652,0,0,1-.2,2.212H307.079a6.908,6.908,0,0,0,6.888,5.379,7.069,7.069,0,0,0,6.184-3.067h6.988c-1.86,5.228-6.938,8.848-13.272,8.848C306.024,37.2,300.091,31.421,300.091,23.78Zm7.089-2.514H320.6a6.886,6.886,0,0,0-6.737-5.178A6.787,6.787,0,0,0,307.18,21.266ZM267.094,37.192a14.9,14.9,0,0,1-3.48-.537,13.8,13.8,0,0,1-3.09-1.285,13.175,13.175,0,0,1-2.608-1.942,12.93,12.93,0,0,1-2.033-2.508,13.073,13.073,0,0,1-1.47-3.34,14.2,14.2,0,0,1,0-7.6,13.073,13.073,0,0,1,1.47-3.34l.011-.02a12.969,12.969,0,0,1,2.022-2.488,13.175,13.175,0,0,1,2.608-1.942,13.8,13.8,0,0,1,3.09-1.284,14.889,14.889,0,0,1,3.48-.537c.19-.007.383-.011.575-.011a15.064,15.064,0,0,1,3.869.5,13.793,13.793,0,0,1,3.4,1.409v-1.3h6.536V36.6h-6.536V35.3a13.79,13.79,0,0,1-3.4,1.409,15.053,15.053,0,0,1-3.869.5C267.478,37.2,267.284,37.2,267.094,37.192Zm-4.452-18.465a7.353,7.353,0,0,0,0,10.105,7,7,0,0,0,5.027,2.036h.093a7.337,7.337,0,0,0,2.783-.566,6.674,6.674,0,0,0,2.2-1.5,7.407,7.407,0,0,0,0-10.047,6.674,6.674,0,0,0-2.2-1.5,7.327,7.327,0,0,0-2.783-.566h-.093A7,7,0,0,0,262.642,18.727ZM148.319,23.78c0-7.642,5.932-13.423,13.775-13.423s13.775,5.782,13.775,13.423S169.937,37.2,162.094,37.2,148.319,31.421,148.319,23.78Zm6.737,0a7.039,7.039,0,1,0,14.077,0,7.039,7.039,0,1,0-14.077,0Zm-32.689,2.564h7.139a4.772,4.772,0,0,0,4.977,4.675c2.665,0,4.726-1.709,4.726-3.921,0-2.614-2.866-4.072-6.536-4.977-5.178-1.357-9.8-4.374-9.8-10.708,0-5.731,4.927-10.105,11.412-10.105,6.586,0,11.563,4.474,11.563,10.407h-7.139a4.234,4.234,0,0,0-4.424-4.223c-2.413,0-4.273,1.558-4.273,3.62,0,2.514,2.363,3.921,6.033,4.877,5.43,1.408,10.306,4.072,10.306,10.708,0,5.983-5.178,10.507-11.965,10.507C127.545,37.2,122.367,32.527,122.367,26.344ZM97,37.192a14.9,14.9,0,0,1-3.48-.537,13.793,13.793,0,0,1-3.09-1.285,13.168,13.168,0,0,1-2.608-1.942,12.92,12.92,0,0,1-2.033-2.508,13.081,13.081,0,0,1-1.471-3.34,14.205,14.205,0,0,1,0-7.6,13.081,13.081,0,0,1,1.471-3.34l.011-.02a12.97,12.97,0,0,1,2.022-2.488,13.168,13.168,0,0,1,2.608-1.942,13.793,13.793,0,0,1,3.09-1.284A14.887,14.887,0,0,1,97,10.367c.19-.007.383-.011.575-.011a15.062,15.062,0,0,1,3.869.5,13.794,13.794,0,0,1,3.4,1.409v-1.3h6.536V36.6h-6.536V35.3a13.787,13.787,0,0,1-3.4,1.409,15.051,15.051,0,0,1-3.869.5C97.384,37.2,97.19,37.2,97,37.192ZM92.549,18.727a7.353,7.353,0,0,0,0,10.105,7,7,0,0,0,5.027,2.036h.093a7.337,7.337,0,0,0,2.783-.566,6.672,6.672,0,0,0,2.2-1.5,7.407,7.407,0,0,0,0-10.047,6.672,6.672,0,0,0-2.2-1.5,7.326,7.326,0,0,0-2.783-.566h-.093A7,7,0,0,0,92.549,18.727Zm116.53,17.88c-6.988,0-10.658-3.117-10.658-9.552l-.006-10.113H187.092V36.6h-6.536V16.942h-4.022V10.96h4.022V9.854c0-6.988,3.771-9.854,11.814-9.854V5.932c-3.469,0-5.279,1.207-5.279,4.273v.754h11.323V4.826l6.536-1.408V10.96h5.178v5.983H204.95l.006,9.761c0,2.665,1.508,3.921,4.122,3.921h1.049v5.983Zm76.673-.008V10.96h6.536V14.73a9.14,9.14,0,0,1,7.491-4.173v6.737c-4.826,0-7.491,2.765-7.491,7.089V36.6Zm-47.18,0-5.681-17.8L227.21,36.6h-6.737l-9.351-25.64h7.491L223.993,28.3l5.631-17.345h6.686l5.681,17.395L247.37,10.96h7.29L245.309,36.6Zm-175.166,0V22.422c0-3.469-2.212-5.731-5.58-5.731-3.62,0-6.033,2.313-6.033,5.832V36.6H45.258V10.96h6.536v3.167a10.024,10.024,0,0,1,8.144-3.771c6.033,0,10,3.921,10,9.954V36.6Zm-28.963,0V10.96h6.536V36.6Zm-11.719,0L6.938,13.825V36.6H0V1.91H7.038L22.824,24.685V1.91h6.938V36.6Zm233.5-5.107A12.682,12.682,0,0,0,257.8,33.5h0A12.614,12.614,0,0,1,256.224,31.492Zm-170.094,0,.345.545ZM256.569,15.549a12.53,12.53,0,0,1,1.228-1.491,12.672,12.672,0,0,0-1.227,1.491Zm-170.093,0A12.55,12.55,0,0,1,87.7,14.058a12.676,12.676,0,0,0-1.227,1.491ZM73.67,5.467a3.668,3.668,0,0,1,7.336,0,3.668,3.668,0,0,1-7.336,0Zm-39.627,0a3.668,3.668,0,0,1,7.336,0,3.668,3.668,0,0,1-7.336,0Z" transform="translate(-6603 -15533)" fill="#1a1a1a" stroke="rgba(0,0,0,0)" stroke-width="1"/>
    <g id="Ninja_Software_Badge_x_2000_Dark" data-name="Ninja Software Badge x 2000 Dark" transform="translate(-6499.417 -15452.524)">
      <g id="Group_17" data-name="Group 17" transform="translate(0 0)">
        <path id="Path_381" data-name="Path 381" d="M32.8,105.786a11.325,11.325,0,0,1-9.773-6.437L1.318,58.418a11.349,11.349,0,0,1-.026-10.546L8.674,33.732,23.087,6.095A11.294,11.294,0,0,1,33.115.022H84.7A11.324,11.324,0,0,1,95.2,5.669L119,47.5a11.258,11.258,0,0,1,1.406,4.368l0,.014v0a11.317,11.317,0,0,1-1.43,6.822L97.18,96.685l-.624,1.088-1.314,2.291a11.3,11.3,0,0,1-6.847,5.281,11.341,11.341,0,0,1-3.256.393l-50.41.055-1.493,0H32.87Z" transform="translate(0 0)" fill="#1a1a1a"/>
        <g id="Group_13" data-name="Group 13" transform="translate(10.075 9.839)">
          <g id="Path_363" data-name="Path 363" transform="translate(0.007 0)">
            <path id="Path_366" data-name="Path 366" d="M538.875,725.464a4.61,4.61,0,0,1-.005-9.221l45.741-.049,16.707-29.124-82.772.012a4.61,4.61,0,0,1-4.088-6.744L534.68,641.6a4.611,4.611,0,0,1,4.087-2.477H587.24a4.61,4.61,0,0,1,0,9.221H541.561L526.152,677.86l83.125-.011a4.61,4.61,0,0,1,4,6.9L591.282,723.1a4.611,4.611,0,0,1-3.994,2.316l-48.408.052Z" transform="translate(-513.935 -639.122)" fill="#fff"/>
          </g>
          <g id="Path_364" data-name="Path 364" transform="translate(0 0.001)">
            <path id="Path_367" data-name="Path 367" d="M538.85,725.464a4.609,4.609,0,0,1-4.077-2.451l-20.338-38.352a4.61,4.61,0,0,1-.015-4.292l20.215-38.762a4.61,4.61,0,0,1,7.989-.325l44.445,70.581,16.885-29.412-20.728-36.434a4.61,4.61,0,1,1,8.014-4.56l22.031,38.724a4.61,4.61,0,0,1-.009,4.575L591.251,723.1a4.61,4.61,0,0,1-7.9.161L539.1,652.988l-15.382,29.5,19.2,36.21a4.612,4.612,0,0,1-4.069,6.771Z" transform="translate(-513.898 -639.127)" fill="#fff"/>
          </g>
          <g id="Path_362" data-name="Path 362" transform="translate(0 0.001)" opacity="0.501">
            <path id="Path_369" data-name="Path 369" d="M538.85,725.464a4.609,4.609,0,0,1-4.077-2.451l-20.338-38.352a4.61,4.61,0,0,1-.015-4.292l20.215-38.762a4.61,4.61,0,0,1,7.989-.325l44.445,70.581,16.885-29.412-20.728-36.434a4.61,4.61,0,1,1,8.014-4.56l22.031,38.724a4.61,4.61,0,0,1-.009,4.575L591.251,723.1a4.61,4.61,0,0,1-7.9.161L539.1,652.988l-15.382,29.5,19.2,36.21a4.612,4.612,0,0,1-4.069,6.771Z" transform="translate(-513.898 -639.127)" fill="#fff"/>
          </g>
          <path id="Path_1078" data-name="Path 1078" d="M7010.688,11217a4.612,4.612,0,0,1-4.156-2.611l-20.255-38.2a4.671,4.671,0,0,1-.007-4.32l7.233-13.855,12.974-24.879a4.644,4.644,0,0,1,4.1-2.482h48.474c.11,0,.22.006.329.012a4.606,4.606,0,0,1,3.7,2.322l22.031,38.723a4.61,4.61,0,0,1-.01,4.576l-20.014,34.861-2,3.48a4.612,4.612,0,0,1-3.994,2.316l-48.408.053Zm2.774-9.225,37.286-.039-18.34-29.123-34.409,0Zm45.447-4.383,14.22-24.785-29.825,0Zm-60.942-34,28.636,0-15.656-24.863-9.315,17.844Zm39.531-.006,35.683,0-16.788-29.508h-37.479Z" transform="translate(-6985.739 -11130.656)" fill="#fff" stroke="rgba(0,0,0,0)" stroke-width="1"/>
        </g>
      </g>
    </g>
  </g>
</svg>
